<svg xmlns="http://www.w3.org/2000/svg" xmlns:xlink="http://www.w3.org/1999/xlink" width="40" zoomAndPan="magnify" viewBox="0 0 30 30.000001" height="40" preserveAspectRatio="xMidYMid meet" version="1.0"><defs><clipPath id="b38101af30"><path d="M 2.128906 5.742188 L 27.53125 5.742188 L 27.53125 23.160156 L 2.128906 23.160156 Z M 2.128906 5.742188 " clip-rule="nonzero"/></clipPath><clipPath id="3a167f09f1"><path d="M 0.484375 0 L 29.515625 0 L 29.515625 29.03125 L 0.484375 29.03125 Z M 0.484375 0 " clip-rule="nonzero"/></clipPath></defs><g clip-path="url(#b38101af30)"><path fill="#333333" d="M 14.996094 5.742188 C 9.148438 5.742188 4.152344 9.378906 2.128906 14.511719 C 4.152344 19.648438 9.148438 23.285156 14.996094 23.285156 C 20.84375 23.285156 25.835938 19.648438 27.859375 14.511719 C 25.835938 9.378906 20.847656 5.742188 14.996094 5.742188 Z M 14.996094 20.359375 C 11.765625 20.359375 9.148438 17.742188 9.148438 14.511719 C 9.148438 11.285156 11.765625 8.664062 14.996094 8.664062 C 18.222656 8.664062 20.84375 11.285156 20.84375 14.511719 C 20.84375 17.742188 18.222656 20.359375 14.996094 20.359375 Z M 14.996094 11.003906 C 13.058594 11.003906 11.484375 12.578125 11.484375 14.511719 C 11.484375 16.449219 13.058594 18.019531 14.996094 18.019531 C 16.929688 18.019531 18.503906 16.449219 18.503906 14.511719 C 18.503906 12.578125 16.929688 11.003906 14.996094 11.003906 Z M 14.996094 11.003906 " fill-opacity="1" fill-rule="nonzero"/></g><g clip-path="url(#3a167f09f1)"><path stroke-linecap="round" transform="matrix(0.598254, 0.410959, -0.410959, 0.598254, 4.644512, 4.282145)" fill="none" stroke-linejoin="miter" d="M 1.501083 1.500778 L 37.322991 1.50296 " stroke="#ffffff" stroke-width="3" stroke-opacity="1" stroke-miterlimit="4"/><path stroke-linecap="round" transform="matrix(0.598254, 0.410959, -0.410959, 0.598254, 4.002886, 6.441956)" fill="none" stroke-linejoin="miter" d="M 1.502488 1.500389 L 37.321349 1.498136 " stroke="#333333" stroke-width="3" stroke-opacity="1" stroke-miterlimit="4"/></g></svg>